<?xml version="1.0" encoding="UTF-8" standalone="no"?>
<!-- Created with Inkscape (http://www.inkscape.org/) -->

<svg
   xmlns:dc="http://purl.org/dc/elements/1.1/"
   xmlns:cc="http://creativecommons.org/ns#"
   xmlns:rdf="http://www.w3.org/1999/02/22-rdf-syntax-ns#"
   xmlns:svg="http://www.w3.org/2000/svg"
   xmlns="http://www.w3.org/2000/svg"
   xmlns:sodipodi="http://sodipodi.sourceforge.net/DTD/sodipodi-0.dtd"
   xmlns:inkscape="http://www.inkscape.org/namespaces/inkscape"
   width="121.36146mm"
   height="43.164032mm"
   viewBox="0 0 121.36146 43.164032"
   version="1.1"
   id="svg8"
   inkscape:version="0.92.5 (2060ec1f9f, 2020-04-08)"
   sodipodi:docname="remora-matrix.svg"
   inkscape:export-filename="/home/martin/Documents/PlatformIO/Projects/Remora/extras/img/remora-120.png"
   inkscape:export-xdpi="25.842901"
   inkscape:export-ydpi="25.842901">
  <defs
     id="defs2" />
  <sodipodi:namedview
     id="base"
     pagecolor="#ffffff"
     bordercolor="#666666"
     borderopacity="1.0"
     inkscape:pageopacity="0.0"
     inkscape:pageshadow="2"
     inkscape:zoom="1"
     inkscape:cx="55.221353"
     inkscape:cy="85.194546"
     inkscape:document-units="mm"
     inkscape:current-layer="layer1"
     showgrid="false"
     showguides="true"
     inkscape:window-width="1860"
     inkscape:window-height="1006"
     inkscape:window-x="60"
     inkscape:window-y="37"
     inkscape:window-maximized="1"
     inkscape:guide-bbox="true"
     inkscape:snap-nodes="false"
     fit-margin-top="0"
     fit-margin-left="0"
     fit-margin-right="0"
     fit-margin-bottom="0">
    <sodipodi:guide
       position="0.0052573766,10.143797"
       orientation="0,1"
       id="guide44"
       inkscape:locked="false" />
    <sodipodi:guide
       position="0.0052573766,37.104618"
       orientation="1,0"
       id="guide1071"
       inkscape:locked="false" />
    <sodipodi:guide
       position="3.4129438,28.017458"
       orientation="1,0"
       id="guide1073"
       inkscape:locked="false" />
  </sodipodi:namedview>
  <metadata
     id="metadata5">
    <rdf:RDF>
      <cc:Work
         rdf:about="">
        <dc:format>image/svg+xml</dc:format>
        <dc:type
           rdf:resource="http://purl.org/dc/dcmitype/StillImage" />
        <dc:title></dc:title>
      </cc:Work>
    </rdf:RDF>
  </metadata>
  <g
     inkscape:groupmode="layer"
     id="layer2"
     inkscape:label="background"
     style="display:inline;opacity:1"
     transform="translate(-4.8724113,-8.5703259)">
    <rect
       style="opacity:0.2;fill:#ffffff;stroke-width:0.34313622"
       id="rect139"
       width="116.93042"
       height="43.164032"
       x="9.3034496"
       y="8.5703259"
       inkscape:export-xdpi="30.844736"
       inkscape:export-ydpi="30.844736" />
  </g>
  <g
     inkscape:groupmode="layer"
     id="layer1"
     inkscape:label="Matrix"
     transform="translate(-4.8724113,-8.5703259)">
    <circle
       r="0.99218744"
       cy="19.192886"
       cx="11.073339"
       id="circle68"
       style="display:inline;opacity:0.8;fill:#ff0000;stroke-width:0.2315104" />
    <circle
       style="display:inline;opacity:0.6;fill:#ff0000;stroke-width:0.2315104"
       id="circle70"
       cx="14.210627"
       cy="25.248373"
       r="0.99218744" />
    <circle
       r="0.99218744"
       cy="31.458797"
       cx="17.716745"
       id="circle114"
       style="display:inline;opacity:0.4;fill:#ff0000;stroke-width:0.2315104" />
    <circle
       style="display:inline;opacity:0.2;fill:#ff0000;stroke-width:0.2315104"
       id="circle118"
       cx="21.327204"
       cy="37.679642"
       r="0.99218744" />
    <circle
       r="0.99218744"
       cy="37.537643"
       cx="16.050978"
       id="circle68-9"
       style="display:inline;opacity:0.8;fill:#ff0000;stroke-width:0.2315104" />
    <circle
       style="display:inline;opacity:0.6;fill:#ff0000;stroke-width:0.2315104"
       id="circle70-1"
       cx="5.8645988"
       cy="19.091497"
       r="0.99218744" />
    <circle
       r="0.99218744"
       cy="25.235102"
       cx="9.370718"
       id="circle114-2"
       style="display:inline;opacity:0.4;fill:#ff0000;stroke-width:0.2315104" />
    <circle
       style="display:inline;opacity:0.2;fill:#ff0000;stroke-width:0.2315104"
       id="circle118-7"
       cx="12.981176"
       cy="31.455952"
       r="0.99218744" />
    <circle
       r="0.99218744"
       cy="19.195408"
       cx="21.868143"
       id="circle68-0"
       style="display:inline;opacity:0.8;fill:#ff0000;stroke-width:0.2315104" />
    <circle
       style="display:inline;opacity:0.2;fill:#ff0000;stroke-width:0.2315104"
       id="circle118-6"
       cx="32.122005"
       cy="37.682167"
       r="0.99218744" />
    <circle
       r="0.99218744"
       cy="37.540165"
       cx="26.845781"
       id="circle68-9-0"
       style="display:inline;opacity:0.8;fill:#ff0000;stroke-width:0.2315104" />
    <circle
       style="display:inline;opacity:0.6;fill:#ff0000;stroke-width:0.2315104"
       id="circle70-1-6"
       cx="16.525768"
       cy="19.188871"
       r="0.99218744" />
    <circle
       style="display:inline;opacity:0.2;fill:#ff0000;stroke-width:0.2315104"
       id="circle118-7-6"
       cx="23.647717"
       cy="31.458475"
       r="0.99218744" />
    <circle
       r="0.99218744"
       cy="25.337049"
       cx="19.721581"
       id="circle114-1"
       style="display:inline;opacity:0.4;fill:#ff0000;stroke-width:0.2315104" />
  </g>
  <g
     inkscape:groupmode="layer"
     id="layer3"
     inkscape:label="shape"
     transform="translate(-4.8724113,-8.5703259)">
    <path
       style="opacity:1;fill:#ffffff;stroke:#000000;stroke-width:0.26458332px;stroke-linecap:butt;stroke-linejoin:miter;stroke-opacity:1"
       d="m 38.64421,23.363377 3.058203,0.716812 16.158482,0.09449 c 0,0 11.429031,-2.047259 14.358347,-1.574788 2.929313,0.47247 12.288973,2.80321 12.288973,2.80321 l -0.566965,0.850447 4.110492,0.09449 c 0,0 3.986271,-2.559076 10.625342,-2.757031 2.669216,-0.07959 4.057966,0.116809 4.754806,0.354201 0.69684,0.237392 0.98574,0.432257 0.8873,0.516653 -0.47472,0.21827 -0.18334,0.137585 -0.84258,0.447948 -0.49975,0.235274 -0.41612,0.710913 -0.41978,1.225384 -0.0109,1.529971 0.004,1.490926 -0.0118,2.695482 0.0668,0.482552 0.0862,0.875189 0.15477,1.235729 0.12139,0.638606 0.31971,0.660613 0.92032,0.911837 0,0 -2.13047,1.181177 -7.705613,0.472471 -1.886475,-0.239806 -4.530633,-1.907453 -7.465026,-1.984375 -5.535195,-0.145099 -40.065479,9.638392 -49.325896,5.669643 -9.260416,-3.96875 -3.590772,-1.039435 -3.590772,-1.039435 l 2.456844,1.322917 c 0,0 0.47247,0.755953 1.133929,1.606399 0.661458,0.850447 1.417407,1.41741 1.417407,1.41741 0,0 -12.095237,-6.614583 -19.087797,-8.315475 -5.142561,-1.250893 -5.480655,-1.606399 -5.480655,-1.606399 0,0 1.748434,-2.424264 5.764137,-3.401785 4.195968,-1.021403 2.108231,-1.015116 16.407571,-1.756235 z"
       id="path91"
       inkscape:connector-curvature="0"
       sodipodi:nodetypes="cccscccsscsscscsssccccscsc"
       inkscape:export-xdpi="28.286236"
       inkscape:export-ydpi="28.286236" />
  </g>
  <g
     id="g58"
     inkscape:groupmode="layer"
     inkscape:label="eyes"
     style="display:inline"
     transform="translate(-4.8724113,-8.5703259)">
    <circle
       style="display:inline;opacity:1;fill:#1a1a1a;stroke-width:0.2315104"
       id="circle64"
       cx="26.678118"
       cy="27.359369"
       r="0.99218744" />
  </g>
</svg>
